<svg width="771" height="53" viewBox="0 0 771 53" fill="none" xmlns="http://www.w3.org/2000/svg">
<path d="M29.368 1.648V6.976H7.552V23.896H25.264V29.224H7.552V51.832H1V1.648H29.368Z" stroke="black"/>
<path d="M29.368 1.648V6.976H7.552V23.896H25.264V29.224H7.552V51.832H1V1.648H29.368Z" stroke="black" stroke-opacity="0.2"/>
<path d="M43.6892 1.648V33.4C43.6892 37.864 44.7693 41.176 46.9293 43.336C49.1373 45.496 52.1852 46.576 56.0732 46.576C59.9132 46.576 62.9132 45.496 65.0732 43.336C67.2812 41.176 68.3853 37.864 68.3853 33.4V1.648H74.9373V33.328C74.9373 37.504 74.0973 41.032 72.4173 43.912C70.7373 46.744 68.4573 48.856 65.5773 50.248C62.7453 51.64 59.5533 52.336 56.0013 52.336C52.4493 52.336 49.2332 51.64 46.3532 50.248C43.5212 48.856 41.2653 46.744 39.5853 43.912C37.9533 41.032 37.1373 37.504 37.1373 33.328V1.648H43.6892Z" stroke="black"/>
<path d="M43.6892 1.648V33.4C43.6892 37.864 44.7693 41.176 46.9293 43.336C49.1373 45.496 52.1852 46.576 56.0732 46.576C59.9132 46.576 62.9132 45.496 65.0732 43.336C67.2812 41.176 68.3853 37.864 68.3853 33.4V1.648H74.9373V33.328C74.9373 37.504 74.0973 41.032 72.4173 43.912C70.7373 46.744 68.4573 48.856 65.5773 50.248C62.7453 51.64 59.5533 52.336 56.0013 52.336C52.4493 52.336 49.2332 51.64 46.3532 50.248C43.5212 48.856 41.2653 46.744 39.5853 43.912C37.9533 41.032 37.1373 37.504 37.1373 33.328V1.648H43.6892Z" stroke="black" stroke-opacity="0.2"/>
<path d="M92.4192 46.504H109.987V51.832H85.8672V1.648H92.4192V46.504Z" stroke="black"/>
<path d="M92.4192 46.504H109.987V51.832H85.8672V1.648H92.4192V46.504Z" stroke="black" stroke-opacity="0.2"/>
<path d="M123.497 46.504H141.065V51.832H116.945V1.648H123.497V46.504Z" stroke="black"/>
<path d="M123.497 46.504H141.065V51.832H116.945V1.648H123.497V46.504Z" stroke="black" stroke-opacity="0.2"/>
<path d="M163.935 52.336C160.623 52.336 157.647 51.76 155.007 50.608C152.415 49.408 150.375 47.776 148.887 45.712C147.399 43.6 146.631 41.176 146.583 38.44H153.567C153.807 40.792 154.767 42.784 156.447 44.416C158.175 46 160.671 46.792 163.935 46.792C167.055 46.792 169.503 46.024 171.279 44.488C173.103 42.904 174.015 40.888 174.015 38.44C174.015 36.52 173.487 34.96 172.431 33.76C171.375 32.56 170.055 31.648 168.471 31.024C166.887 30.4 164.751 29.728 162.063 29.008C158.751 28.144 156.087 27.28 154.071 26.416C152.103 25.552 150.399 24.208 148.959 22.384C147.567 20.512 146.871 18.016 146.871 14.896C146.871 12.16 147.567 9.736 148.959 7.624C150.351 5.512 152.295 3.88 154.791 2.728C157.335 1.576 160.239 1 163.503 1C168.207 1 172.047 2.176 175.023 4.528C178.047 6.88 179.751 10 180.135 13.888H172.935C172.695 11.968 171.687 10.288 169.911 8.848C168.135 7.36 165.783 6.616 162.855 6.616C160.119 6.616 157.887 7.336 156.159 8.776C154.431 10.168 153.567 12.136 153.567 14.68C153.567 16.504 154.071 17.992 155.079 19.144C156.135 20.296 157.407 21.184 158.895 21.808C160.431 22.384 162.567 23.056 165.303 23.824C168.615 24.736 171.279 25.648 173.295 26.56C175.311 27.424 177.039 28.792 178.479 30.664C179.919 32.488 180.639 34.984 180.639 38.152C180.639 40.6 179.991 42.904 178.695 45.064C177.399 47.224 175.479 48.976 172.935 50.32C170.391 51.664 167.391 52.336 163.935 52.336Z" stroke="black"/>
<path d="M163.935 52.336C160.623 52.336 157.647 51.76 155.007 50.608C152.415 49.408 150.375 47.776 148.887 45.712C147.399 43.6 146.631 41.176 146.583 38.44H153.567C153.807 40.792 154.767 42.784 156.447 44.416C158.175 46 160.671 46.792 163.935 46.792C167.055 46.792 169.503 46.024 171.279 44.488C173.103 42.904 174.015 40.888 174.015 38.44C174.015 36.52 173.487 34.96 172.431 33.76C171.375 32.56 170.055 31.648 168.471 31.024C166.887 30.4 164.751 29.728 162.063 29.008C158.751 28.144 156.087 27.28 154.071 26.416C152.103 25.552 150.399 24.208 148.959 22.384C147.567 20.512 146.871 18.016 146.871 14.896C146.871 12.16 147.567 9.736 148.959 7.624C150.351 5.512 152.295 3.88 154.791 2.728C157.335 1.576 160.239 1 163.503 1C168.207 1 172.047 2.176 175.023 4.528C178.047 6.88 179.751 10 180.135 13.888H172.935C172.695 11.968 171.687 10.288 169.911 8.848C168.135 7.36 165.783 6.616 162.855 6.616C160.119 6.616 157.887 7.336 156.159 8.776C154.431 10.168 153.567 12.136 153.567 14.68C153.567 16.504 154.071 17.992 155.079 19.144C156.135 20.296 157.407 21.184 158.895 21.808C160.431 22.384 162.567 23.056 165.303 23.824C168.615 24.736 171.279 25.648 173.295 26.56C175.311 27.424 177.039 28.792 178.479 30.664C179.919 32.488 180.639 34.984 180.639 38.152C180.639 40.6 179.991 42.904 178.695 45.064C177.399 47.224 175.479 48.976 172.935 50.32C170.391 51.664 167.391 52.336 163.935 52.336Z" stroke="black" stroke-opacity="0.2"/>
<path d="M221.169 1.648V6.976H207.489V51.832H200.937V6.976H187.185V1.648H221.169Z" stroke="black"/>
<path d="M221.169 1.648V6.976H207.489V51.832H200.937V6.976H187.185V1.648H221.169Z" stroke="black" stroke-opacity="0.2"/>
<path d="M258.898 40.672H237.01L232.978 51.832H226.066L244.21 1.936H251.77L269.842 51.832H262.93L258.898 40.672ZM257.026 35.344L247.954 10L238.882 35.344H257.026Z" stroke="black"/>
<path d="M258.898 40.672H237.01L232.978 51.832H226.066L244.21 1.936H251.77L269.842 51.832H262.93L258.898 40.672ZM257.026 35.344L247.954 10L238.882 35.344H257.026Z" stroke="black" stroke-opacity="0.2"/>
<path d="M275.302 26.704C275.302 21.808 276.406 17.416 278.614 13.528C280.822 9.592 283.822 6.52 287.614 4.312C291.454 2.104 295.702 1 300.358 1C305.83 1 310.606 2.32 314.686 4.96C318.766 7.6 321.742 11.344 323.614 16.192H315.766C314.374 13.168 312.358 10.84 309.718 9.208C307.126 7.576 304.006 6.76 300.358 6.76C296.854 6.76 293.71 7.576 290.926 9.208C288.142 10.84 285.958 13.168 284.374 16.192C282.79 19.168 281.998 22.672 281.998 26.704C281.998 30.688 282.79 34.192 284.374 37.216C285.958 40.192 288.142 42.496 290.926 44.128C293.71 45.76 296.854 46.576 300.358 46.576C304.006 46.576 307.126 45.784 309.718 44.2C312.358 42.568 314.374 40.24 315.766 37.216H323.614C321.742 42.016 318.766 45.736 314.686 48.376C310.606 50.968 305.83 52.264 300.358 52.264C295.702 52.264 291.454 51.184 287.614 49.024C283.822 46.816 280.822 43.768 278.614 39.88C276.406 35.992 275.302 31.6 275.302 26.704Z" stroke="black"/>
<path d="M275.302 26.704C275.302 21.808 276.406 17.416 278.614 13.528C280.822 9.592 283.822 6.52 287.614 4.312C291.454 2.104 295.702 1 300.358 1C305.83 1 310.606 2.32 314.686 4.96C318.766 7.6 321.742 11.344 323.614 16.192H315.766C314.374 13.168 312.358 10.84 309.718 9.208C307.126 7.576 304.006 6.76 300.358 6.76C296.854 6.76 293.71 7.576 290.926 9.208C288.142 10.84 285.958 13.168 284.374 16.192C282.79 19.168 281.998 22.672 281.998 26.704C281.998 30.688 282.79 34.192 284.374 37.216C285.958 40.192 288.142 42.496 290.926 44.128C293.71 45.76 296.854 46.576 300.358 46.576C304.006 46.576 307.126 45.784 309.718 44.2C312.358 42.568 314.374 40.24 315.766 37.216H323.614C321.742 42.016 318.766 45.736 314.686 48.376C310.606 50.968 305.83 52.264 300.358 52.264C295.702 52.264 291.454 51.184 287.614 49.024C283.822 46.816 280.822 43.768 278.614 39.88C276.406 35.992 275.302 31.6 275.302 26.704Z" stroke="black" stroke-opacity="0.2"/>
<path d="M360.583 51.832L339.919 28.936V51.832H333.367V1.648H339.919V24.904L360.655 1.648H368.935L346.183 26.776L369.151 51.832H360.583Z" stroke="black"/>
<path d="M360.583 51.832L339.919 28.936V51.832H333.367V1.648H339.919V24.904L360.655 1.648H368.935L346.183 26.776L369.151 51.832H360.583Z" stroke="black" stroke-opacity="0.2"/>
<path d="M411.288 1.648C416.76 1.648 421.488 2.68 425.472 4.744C429.504 6.76 432.576 9.664 434.688 13.456C436.848 17.248 437.928 21.712 437.928 26.848C437.928 31.984 436.848 36.448 434.688 40.24C432.576 43.984 429.504 46.864 425.472 48.88C421.488 50.848 416.76 51.832 411.288 51.832H395.664V1.648H411.288ZM411.288 46.432C417.768 46.432 422.712 44.728 426.12 41.32C429.528 37.864 431.232 33.04 431.232 26.848C431.232 20.608 429.504 15.736 426.048 12.232C422.64 8.728 417.72 6.976 411.288 6.976H402.216V46.432H411.288Z" stroke="black"/>
<path d="M411.288 1.648C416.76 1.648 421.488 2.68 425.472 4.744C429.504 6.76 432.576 9.664 434.688 13.456C436.848 17.248 437.928 21.712 437.928 26.848C437.928 31.984 436.848 36.448 434.688 40.24C432.576 43.984 429.504 46.864 425.472 48.88C421.488 50.848 416.76 51.832 411.288 51.832H395.664V1.648H411.288ZM411.288 46.432C417.768 46.432 422.712 44.728 426.12 41.32C429.528 37.864 431.232 33.04 431.232 26.848C431.232 20.608 429.504 15.736 426.048 12.232C422.64 8.728 417.72 6.976 411.288 6.976H402.216V46.432H411.288Z" stroke="black" stroke-opacity="0.2"/>
<path d="M453.122 6.976V23.752H471.41V29.152H453.122V46.432H473.57V51.832H446.57V1.576H473.57V6.976H453.122Z" stroke="black"/>
<path d="M453.122 6.976V23.752H471.41V29.152H453.122V46.432H473.57V51.832H446.57V1.576H473.57V6.976H453.122Z" stroke="black" stroke-opacity="0.2"/>
<path d="M524.956 1.648L506.02 51.832H498.46L479.524 1.648H486.508L502.276 44.92L518.044 1.648H524.956Z" stroke="black"/>
<path d="M524.956 1.648L506.02 51.832H498.46L479.524 1.648H486.508L502.276 44.92L518.044 1.648H524.956Z" stroke="black" stroke-opacity="0.2"/>
<path d="M538.693 6.976V23.752H556.981V29.152H538.693V46.432H559.141V51.832H532.141V1.576H559.141V6.976H538.693Z" stroke="black"/>
<path d="M538.693 6.976V23.752H556.981V29.152H538.693V46.432H559.141V51.832H532.141V1.576H559.141V6.976H538.693Z" stroke="black" stroke-opacity="0.2"/>
<path d="M575.607 46.504H593.175V51.832H569.055V1.648H575.607V46.504Z" stroke="black"/>
<path d="M575.607 46.504H593.175V51.832H569.055V1.648H575.607V46.504Z" stroke="black" stroke-opacity="0.2"/>
<path d="M622.885 52.336C618.229 52.336 613.981 51.256 610.141 49.096C606.301 46.888 603.253 43.84 600.997 39.952C598.789 36.016 597.685 31.6 597.685 26.704C597.685 21.808 598.789 17.416 600.997 13.528C603.253 9.592 606.301 6.544 610.141 4.384C613.981 2.176 618.229 1.072 622.885 1.072C627.589 1.072 631.861 2.176 635.701 4.384C639.541 6.544 642.565 9.568 644.773 13.456C646.981 17.344 648.085 21.76 648.085 26.704C648.085 31.648 646.981 36.064 644.773 39.952C642.565 43.84 639.541 46.888 635.701 49.096C631.861 51.256 627.589 52.336 622.885 52.336ZM622.885 46.648C626.389 46.648 629.533 45.832 632.317 44.2C635.149 42.568 637.357 40.24 638.941 37.216C640.573 34.192 641.389 30.688 641.389 26.704C641.389 22.672 640.573 19.168 638.941 16.192C637.357 13.168 635.173 10.84 632.389 9.208C629.605 7.576 626.437 6.76 622.885 6.76C619.333 6.76 616.165 7.576 613.381 9.208C610.597 10.84 608.389 13.168 606.757 16.192C605.173 19.168 604.381 22.672 604.381 26.704C604.381 30.688 605.173 34.192 606.757 37.216C608.389 40.24 610.597 42.568 613.381 44.2C616.213 45.832 619.381 46.648 622.885 46.648Z" stroke="black"/>
<path d="M622.885 52.336C618.229 52.336 613.981 51.256 610.141 49.096C606.301 46.888 603.253 43.84 600.997 39.952C598.789 36.016 597.685 31.6 597.685 26.704C597.685 21.808 598.789 17.416 600.997 13.528C603.253 9.592 606.301 6.544 610.141 4.384C613.981 2.176 618.229 1.072 622.885 1.072C627.589 1.072 631.861 2.176 635.701 4.384C639.541 6.544 642.565 9.568 644.773 13.456C646.981 17.344 648.085 21.76 648.085 26.704C648.085 31.648 646.981 36.064 644.773 39.952C642.565 43.84 639.541 46.888 635.701 49.096C631.861 51.256 627.589 52.336 622.885 52.336ZM622.885 46.648C626.389 46.648 629.533 45.832 632.317 44.2C635.149 42.568 637.357 40.24 638.941 37.216C640.573 34.192 641.389 30.688 641.389 26.704C641.389 22.672 640.573 19.168 638.941 16.192C637.357 13.168 635.173 10.84 632.389 9.208C629.605 7.576 626.437 6.76 622.885 6.76C619.333 6.76 616.165 7.576 613.381 9.208C610.597 10.84 608.389 13.168 606.757 16.192C605.173 19.168 604.381 22.672 604.381 26.704C604.381 30.688 605.173 34.192 606.757 37.216C608.389 40.24 610.597 42.568 613.381 44.2C616.213 45.832 619.381 46.648 622.885 46.648Z" stroke="black" stroke-opacity="0.2"/>
<path d="M690.286 16.336C690.286 20.512 688.846 23.992 685.966 26.776C683.134 29.512 678.79 30.88 672.934 30.88H663.286V51.832H656.734V1.648H672.934C678.598 1.648 682.894 3.016 685.822 5.752C688.798 8.488 690.286 12.016 690.286 16.336ZM672.934 25.48C676.582 25.48 679.27 24.688 680.998 23.104C682.726 21.52 683.59 19.264 683.59 16.336C683.59 10.144 680.038 7.048 672.934 7.048H663.286V25.48H672.934Z" stroke="black"/>
<path d="M690.286 16.336C690.286 20.512 688.846 23.992 685.966 26.776C683.134 29.512 678.79 30.88 672.934 30.88H663.286V51.832H656.734V1.648H672.934C678.598 1.648 682.894 3.016 685.822 5.752C688.798 8.488 690.286 12.016 690.286 16.336ZM672.934 25.48C676.582 25.48 679.27 24.688 680.998 23.104C682.726 21.52 683.59 19.264 683.59 16.336C683.59 10.144 680.038 7.048 672.934 7.048H663.286V25.48H672.934Z" stroke="black" stroke-opacity="0.2"/>
<path d="M704.982 6.976V23.752H723.27V29.152H704.982V46.432H725.43V51.832H698.43V1.576H725.43V6.976H704.982Z" stroke="black"/>
<path d="M704.982 6.976V23.752H723.27V29.152H704.982V46.432H725.43V51.832H698.43V1.576H725.43V6.976H704.982Z" stroke="black" stroke-opacity="0.2"/>
<path d="M761.768 51.832L749.816 31.312H741.896V51.832H735.344V1.648H751.544C755.336 1.648 758.528 2.296 761.12 3.592C763.76 4.888 765.728 6.64 767.024 8.848C768.32 11.056 768.968 13.576 768.968 16.408C768.968 19.864 767.96 22.912 765.944 25.552C763.976 28.192 761 29.944 757.016 30.808L769.616 51.832H761.768ZM741.896 26.056H751.544C755.096 26.056 757.76 25.192 759.536 23.464C761.312 21.688 762.2 19.336 762.2 16.408C762.2 13.432 761.312 11.128 759.536 9.496C757.808 7.864 755.144 7.048 751.544 7.048H741.896V26.056Z" stroke="black"/>
<path d="M761.768 51.832L749.816 31.312H741.896V51.832H735.344V1.648H751.544C755.336 1.648 758.528 2.296 761.12 3.592C763.76 4.888 765.728 6.64 767.024 8.848C768.32 11.056 768.968 13.576 768.968 16.408C768.968 19.864 767.96 22.912 765.944 25.552C763.976 28.192 761 29.944 757.016 30.808L769.616 51.832H761.768ZM741.896 26.056H751.544C755.096 26.056 757.76 25.192 759.536 23.464C761.312 21.688 762.2 19.336 762.2 16.408C762.2 13.432 761.312 11.128 759.536 9.496C757.808 7.864 755.144 7.048 751.544 7.048H741.896V26.056Z" stroke="black" stroke-opacity="0.2"/>
</svg>
